<mxfile host="app.diagrams.net" modified="2024-04-02T14:53:48.539Z" agent="Mozilla/5.0 (Windows NT 10.0; Win64; x64) AppleWebKit/537.36 (KHTML, like Gecko) Chrome/123.0.0.0 Safari/537.36" etag="EIW7jNPz-LsAqvrfE5_y" version="24.2.1" type="device">
  <diagram id="0iXjcH4dC--nxdtcw8Pr" name="PÃ¡gina-1">
    <mxGraphModel dx="712" dy="770" grid="1" gridSize="10" guides="1" tooltips="1" connect="1" arrows="1" fold="1" page="1" pageScale="1" pageWidth="827" pageHeight="1169" math="0" shadow="0">
      <root>
        <mxCell id="0" />
        <mxCell id="1" parent="0" />
        <mxCell id="D-s9KgMuGYmoKCSejZKg-2" style="edgeStyle=orthogonalEdgeStyle;rounded=0;orthogonalLoop=1;jettySize=auto;html=1;entryX=0.5;entryY=0;entryDx=0;entryDy=0;" parent="1" source="D-s9KgMuGYmoKCSejZKg-1" target="D-s9KgMuGYmoKCSejZKg-4" edge="1">
          <mxGeometry relative="1" as="geometry">
            <mxPoint x="414" y="190" as="targetPoint" />
          </mxGeometry>
        </mxCell>
        <mxCell id="D-s9KgMuGYmoKCSejZKg-1" value="&lt;font style=&quot;font-size: 20px;&quot;&gt;0&lt;/font&gt;" style="ellipse;whiteSpace=wrap;html=1;aspect=fixed;" parent="1" vertex="1">
          <mxGeometry x="374" y="80" width="80" height="80" as="geometry" />
        </mxCell>
        <mxCell id="D-s9KgMuGYmoKCSejZKg-3" value="&lt;font style=&quot;font-size: 11px;&quot;&gt;int i = 0;&lt;/font&gt;" style="text;html=1;align=center;verticalAlign=middle;resizable=0;points=[];autosize=1;strokeColor=none;fillColor=none;" parent="1" vertex="1">
          <mxGeometry x="460" y="105" width="60" height="30" as="geometry" />
        </mxCell>
        <mxCell id="D-s9KgMuGYmoKCSejZKg-5" style="edgeStyle=orthogonalEdgeStyle;rounded=0;orthogonalLoop=1;jettySize=auto;html=1;entryX=0.5;entryY=0;entryDx=0;entryDy=0;" parent="1" source="D-s9KgMuGYmoKCSejZKg-4" target="D-s9KgMuGYmoKCSejZKg-6" edge="1">
          <mxGeometry relative="1" as="geometry">
            <mxPoint x="414" y="319.9999999999999" as="targetPoint" />
          </mxGeometry>
        </mxCell>
        <mxCell id="D-s9KgMuGYmoKCSejZKg-7" style="edgeStyle=orthogonalEdgeStyle;rounded=0;orthogonalLoop=1;jettySize=auto;html=1;entryX=0;entryY=0.5;entryDx=0;entryDy=0;" parent="1" source="D-s9KgMuGYmoKCSejZKg-4" target="D-s9KgMuGYmoKCSejZKg-33" edge="1">
          <mxGeometry relative="1" as="geometry">
            <mxPoint x="560" y="250" as="targetPoint" />
          </mxGeometry>
        </mxCell>
        <mxCell id="D-s9KgMuGYmoKCSejZKg-4" value="&lt;font style=&quot;font-size: 20px;&quot;&gt;B&lt;/font&gt;" style="ellipse;whiteSpace=wrap;html=1;aspect=fixed;" parent="1" vertex="1">
          <mxGeometry x="374" y="210" width="80" height="80" as="geometry" />
        </mxCell>
        <mxCell id="D-s9KgMuGYmoKCSejZKg-12" style="edgeStyle=orthogonalEdgeStyle;rounded=0;orthogonalLoop=1;jettySize=auto;html=1;entryX=0.5;entryY=1;entryDx=0;entryDy=0;" parent="1" source="D-s9KgMuGYmoKCSejZKg-6" target="D-s9KgMuGYmoKCSejZKg-35" edge="1">
          <mxGeometry relative="1" as="geometry">
            <mxPoint x="270" y="370" as="targetPoint" />
          </mxGeometry>
        </mxCell>
        <mxCell id="D-s9KgMuGYmoKCSejZKg-28" style="edgeStyle=orthogonalEdgeStyle;rounded=0;orthogonalLoop=1;jettySize=auto;html=1;entryX=0.5;entryY=0;entryDx=0;entryDy=0;" parent="1" source="D-s9KgMuGYmoKCSejZKg-6" target="D-s9KgMuGYmoKCSejZKg-25" edge="1">
          <mxGeometry relative="1" as="geometry" />
        </mxCell>
        <mxCell id="D-s9KgMuGYmoKCSejZKg-6" value="&lt;font style=&quot;font-size: 20px;&quot;&gt;C&lt;/font&gt;" style="ellipse;whiteSpace=wrap;html=1;aspect=fixed;" parent="1" vertex="1">
          <mxGeometry x="374" y="330" width="80" height="80" as="geometry" />
        </mxCell>
        <mxCell id="D-s9KgMuGYmoKCSejZKg-8" value="&lt;font style=&quot;font-size: 11px;&quot;&gt;i &amp;lt; nChildren&lt;/font&gt;" style="text;html=1;align=center;verticalAlign=middle;resizable=0;points=[];autosize=1;strokeColor=none;fillColor=none;" parent="1" vertex="1">
          <mxGeometry x="374" y="290" width="80" height="30" as="geometry" />
        </mxCell>
        <mxCell id="D-s9KgMuGYmoKCSejZKg-16" style="edgeStyle=orthogonalEdgeStyle;rounded=0;orthogonalLoop=1;jettySize=auto;html=1;entryX=0.5;entryY=0;entryDx=0;entryDy=0;" parent="1" source="D-s9KgMuGYmoKCSejZKg-9" target="D-s9KgMuGYmoKCSejZKg-20" edge="1">
          <mxGeometry relative="1" as="geometry">
            <mxPoint x="414" y="690" as="targetPoint" />
          </mxGeometry>
        </mxCell>
        <mxCell id="D-s9KgMuGYmoKCSejZKg-9" value="&lt;font style=&quot;font-size: 20px;&quot;&gt;E&lt;/font&gt;" style="ellipse;whiteSpace=wrap;html=1;aspect=fixed;" parent="1" vertex="1">
          <mxGeometry x="374" y="590" width="80" height="80" as="geometry" />
        </mxCell>
        <mxCell id="D-s9KgMuGYmoKCSejZKg-13" value="&lt;font style=&quot;font-size: 11px;&quot;&gt;~(i &amp;lt; nChildren)&lt;/font&gt;" style="text;html=1;align=center;verticalAlign=middle;resizable=0;points=[];autosize=1;strokeColor=none;fillColor=none;" parent="1" vertex="1">
          <mxGeometry x="453" y="224" width="100" height="30" as="geometry" />
        </mxCell>
        <mxCell id="D-s9KgMuGYmoKCSejZKg-14" value="&lt;font style=&quot;font-size: 11px;&quot;&gt;~(children[i].isEmpty())&lt;/font&gt;" style="text;html=1;align=center;verticalAlign=middle;resizable=0;points=[];autosize=1;strokeColor=none;fillColor=none;" parent="1" vertex="1">
          <mxGeometry x="255" y="362" width="130" height="30" as="geometry" />
        </mxCell>
        <mxCell id="D-s9KgMuGYmoKCSejZKg-15" value="&lt;font style=&quot;font-size: 11px;&quot;&gt;int j = i +1;&lt;/font&gt;" style="text;html=1;align=center;verticalAlign=middle;resizable=0;points=[];autosize=1;strokeColor=none;fillColor=none;" parent="1" vertex="1">
          <mxGeometry x="454" y="485" width="70" height="30" as="geometry" />
        </mxCell>
        <mxCell id="D-s9KgMuGYmoKCSejZKg-17" value="&lt;font style=&quot;font-size: 11px;&quot;&gt;j&amp;lt;nChildren&lt;/font&gt;" style="text;html=1;align=center;verticalAlign=middle;resizable=0;points=[];autosize=1;strokeColor=none;fillColor=none;" parent="1" vertex="1">
          <mxGeometry x="374" y="665" width="80" height="30" as="geometry" />
        </mxCell>
        <mxCell id="D-s9KgMuGYmoKCSejZKg-19" value="&lt;font style=&quot;font-size: 11px;&quot;&gt;~(j&amp;lt;nChildren)&lt;/font&gt;" style="text;html=1;align=center;verticalAlign=middle;resizable=0;points=[];autosize=1;strokeColor=none;fillColor=none;" parent="1" vertex="1">
          <mxGeometry x="456" y="640" width="90" height="30" as="geometry" />
        </mxCell>
        <mxCell id="D-s9KgMuGYmoKCSejZKg-20" value="&lt;font style=&quot;font-size: 20px;&quot;&gt;F&lt;/font&gt;" style="ellipse;whiteSpace=wrap;html=1;aspect=fixed;" parent="1" vertex="1">
          <mxGeometry x="374" y="730" width="80" height="80" as="geometry" />
        </mxCell>
        <mxCell id="D-s9KgMuGYmoKCSejZKg-21" value="&lt;font style=&quot;font-size: 11px;&quot;&gt;children[j-1] = children[j];&lt;/font&gt;&lt;div&gt;&lt;font style=&quot;font-size: 11px;&quot;&gt;j++;&lt;/font&gt;&lt;/div&gt;" style="text;html=1;align=center;verticalAlign=middle;resizable=0;points=[];autosize=1;strokeColor=none;fillColor=none;" parent="1" vertex="1">
          <mxGeometry x="343" y="810" width="140" height="40" as="geometry" />
        </mxCell>
        <mxCell id="D-s9KgMuGYmoKCSejZKg-22" style="edgeStyle=orthogonalEdgeStyle;rounded=0;orthogonalLoop=1;jettySize=auto;html=1;exitX=0;exitY=0;exitDx=0;exitDy=0;entryX=0.025;entryY=0.425;entryDx=0;entryDy=0;entryPerimeter=0;" parent="1" source="D-s9KgMuGYmoKCSejZKg-20" target="D-s9KgMuGYmoKCSejZKg-9" edge="1">
          <mxGeometry relative="1" as="geometry">
            <Array as="points">
              <mxPoint x="350" y="742" />
              <mxPoint x="350" y="624" />
            </Array>
          </mxGeometry>
        </mxCell>
        <mxCell id="D-s9KgMuGYmoKCSejZKg-34" style="edgeStyle=orthogonalEdgeStyle;rounded=0;orthogonalLoop=1;jettySize=auto;html=1;entryX=0.5;entryY=1;entryDx=0;entryDy=0;" parent="1" source="D-s9KgMuGYmoKCSejZKg-23" target="D-s9KgMuGYmoKCSejZKg-33" edge="1">
          <mxGeometry relative="1" as="geometry" />
        </mxCell>
        <mxCell id="D-s9KgMuGYmoKCSejZKg-23" value="&lt;font style=&quot;font-size: 20px;&quot;&gt;G&lt;/font&gt;" style="ellipse;whiteSpace=wrap;html=1;aspect=fixed;" parent="1" vertex="1">
          <mxGeometry x="550" y="690" width="80" height="80" as="geometry" />
        </mxCell>
        <mxCell id="D-s9KgMuGYmoKCSejZKg-24" value="&lt;span style=&quot;font-size: 11px;&quot;&gt;children[nChildren-1] = null;&lt;/span&gt;&lt;div&gt;&lt;span style=&quot;font-size: 11px;&quot;&gt;nChildren--;&lt;/span&gt;&lt;/div&gt;" style="text;html=1;align=center;verticalAlign=middle;resizable=0;points=[];autosize=1;strokeColor=none;fillColor=none;" parent="1" vertex="1">
          <mxGeometry x="515" y="768" width="150" height="40" as="geometry" />
        </mxCell>
        <mxCell id="D-s9KgMuGYmoKCSejZKg-30" style="edgeStyle=orthogonalEdgeStyle;rounded=0;orthogonalLoop=1;jettySize=auto;html=1;exitX=0.5;exitY=1;exitDx=0;exitDy=0;entryX=0.5;entryY=0;entryDx=0;entryDy=0;" parent="1" source="D-s9KgMuGYmoKCSejZKg-25" target="D-s9KgMuGYmoKCSejZKg-9" edge="1">
          <mxGeometry relative="1" as="geometry" />
        </mxCell>
        <mxCell id="D-s9KgMuGYmoKCSejZKg-25" value="&lt;font style=&quot;font-size: 20px;&quot;&gt;D&lt;/font&gt;" style="ellipse;whiteSpace=wrap;html=1;aspect=fixed;" parent="1" vertex="1">
          <mxGeometry x="374" y="460" width="80" height="80" as="geometry" />
        </mxCell>
        <mxCell id="D-s9KgMuGYmoKCSejZKg-11" value="&lt;font style=&quot;font-size: 11px;&quot;&gt;children[i].isEmpty()&lt;/font&gt;" style="text;html=1;align=center;verticalAlign=middle;resizable=0;points=[];autosize=1;strokeColor=none;fillColor=none;" parent="1" vertex="1">
          <mxGeometry x="363" y="420" width="120" height="30" as="geometry" />
        </mxCell>
        <mxCell id="D-s9KgMuGYmoKCSejZKg-31" style="edgeStyle=orthogonalEdgeStyle;rounded=0;orthogonalLoop=1;jettySize=auto;html=1;entryX=0;entryY=0.375;entryDx=0;entryDy=0;entryPerimeter=0;" parent="1" source="D-s9KgMuGYmoKCSejZKg-9" target="D-s9KgMuGYmoKCSejZKg-23" edge="1">
          <mxGeometry relative="1" as="geometry" />
        </mxCell>
        <mxCell id="D-s9KgMuGYmoKCSejZKg-33" value="&lt;font style=&quot;font-size: 20px;&quot;&gt;I&lt;/font&gt;" style="ellipse;whiteSpace=wrap;html=1;aspect=fixed;strokeWidth=3;" parent="1" vertex="1">
          <mxGeometry x="570" y="210" width="80" height="80" as="geometry" />
        </mxCell>
        <mxCell id="D-s9KgMuGYmoKCSejZKg-35" value="&lt;font style=&quot;font-size: 20px;&quot;&gt;H&lt;/font&gt;" style="ellipse;whiteSpace=wrap;html=1;aspect=fixed;" parent="1" vertex="1">
          <mxGeometry x="240" y="265" width="80" height="80" as="geometry" />
        </mxCell>
        <mxCell id="D-s9KgMuGYmoKCSejZKg-36" value="&lt;font style=&quot;font-size: 11px;&quot;&gt;i++;&lt;/font&gt;" style="text;html=1;align=center;verticalAlign=middle;resizable=0;points=[];autosize=1;strokeColor=none;fillColor=none;" parent="1" vertex="1">
          <mxGeometry x="208" y="290" width="40" height="30" as="geometry" />
        </mxCell>
        <mxCell id="D-s9KgMuGYmoKCSejZKg-38" style="edgeStyle=orthogonalEdgeStyle;rounded=0;orthogonalLoop=1;jettySize=auto;html=1;entryX=0.007;entryY=0.418;entryDx=0;entryDy=0;entryPerimeter=0;" parent="1" source="D-s9KgMuGYmoKCSejZKg-35" target="D-s9KgMuGYmoKCSejZKg-4" edge="1">
          <mxGeometry relative="1" as="geometry" />
        </mxCell>
      </root>
    </mxGraphModel>
  </diagram>
</mxfile>
